{"title":"Good Luck Chuck 2007 Unrated DvDrip XviD AC3 greenbud1969","uid":11951524,"size":1488943783,"categoryP":"video","categoryS":"movies","magnet":"?xt=urn:btih:1e80d55febb12f8358488c44ee53cf6bb5609682&amp;dn=Good+Luck+Chuck+2007+Unrated+DvDrip+XviD+AC3+greenbud1969&amp;tr=udp%3A%2F%2Ftracker.openbittorrent.com%3A80&amp;tr=udp%3A%2F%2Fopen.demonii.com%3A1337&amp;tr=udp%3A%2F%2Ftracker.coppersurfer.tk%3A6969&amp;tr=udp%3A%2F%2Fexodus.desync.com%3A6969","seeders":1,"leechers":0,"uploader":"greenbud1969","files":4,"time":1432171416,"description":"General\nComplete name                            : Good Luck Chuck 2007 Unrated DvDrip XviD AC3 greenbud1969\nFormat                                   : AVI\nFormat/Info                              : Audio Video Interleave\nFile size                                : 1.37 GiB\nDuration                                 : 1h 41mn\nOverall bit rate                         : 1 933 Kbps\nWriting application                      : VirtualDubMod 1.5.4.1 (build 2178/release)\nWriting library                          : VirtualDubMod build 2178/release\n\nVideo\nID                                       : 0\nFormat                                   : MPEG-4 Visual\nFormat profile                           : Advanced Simple@L5\nFormat settings, BVOP                    : 1\nFormat settings, QPel                    : No\nFormat settings, GMC                     : No warppoints\nFormat settings, Matrix                  : Custom\nCodec ID                                 : XVID\nCodec ID/Hint                            : XviD\nDuration                                 : 1h 41mn\nBit rate                                 : 1 478 Kbps\nWidth                                    : 720 pixels\nHeight                                   : 416 pixels\nDisplay aspect ratio                     : 1.731\nFrame rate                               : 23.976 fps\nColor space                              : YUV\nChroma subsampling                       : 4:2:0\nBit depth                                : 8 bits\nScan type                                : Progressive\nCompression mode                         : Lossy\nBits/(Pixel*Frame)                       : 0.206\nStream size                              : 1.05 GiB (76%)\nWriting library                          : XviD 64\n\nAudio\nID                                       : 1\nFormat                                   : AC-3\nFormat/Info                              : Audio Coding 3\nMode extension                           : CM (complete main)\nFormat settings, Endianness              : Big\nCodec ID                                 : 2000\nDuration                                 : 1h 41mn\nBit rate mode                            : Constant\nBit rate                                 : 448 Kbps\nChannel(s)                               : 6 channels\nChannel positions                        : Front: L C R, Side: L R, LFE\nSampling rate                            : 48.0 KHz\nBit depth                                : 16 bits\nCompression mode                         : Lossy\nDelay relative to video                  : 27ms\nStream size                              : 325 MiB (23%)\nAlignment                                : Split accross interleaves\nInterleave, duration                     : 96 ms (2.30 video frames)\nInterleave, preload duration             : 96 ms\nLanguage                                 : English\n\n\nIMDb Link:  &lt;a href=&quot; http://www.imdb.com/title/tt0452625/&quot; rel=&quot;nofollow&quot; target=&quot;_NEW&quot;&gt; http://www.imdb.com/title/tt0452625/&lt;/a&gt;\n\nDane Cook stars in this hilarious comedy about the luckiest guy on earth. Meet Charlie Logan (Cook), he's a good luck charm and women are guaranteed to find true love after they sleep with him. But what seems like a blessing feels like a curse when he meets Cam (Jessica Alba), the girl of his dreams. Chuck will do anything - and anyone - to break the curse and get the girl in this raunchy, outrageous story.\n\n\nNotes\n\nIf your want to convert this movie or any of my other releases I recommend using ConvertXtoDVD or you can burn as a data disc with any programs such as CyberLink Power2Go, Roxio or Nero \n\n\nAll stand-alone divx players compatible\n\n\nSample and Optional English .srt Included\n\n\nScreenshots &amp; Thumbnail\n\n    &lt;a href=&quot;\nhttp://lookpic.com/O/i2/1121/ZUGqm85M.jpeg&quot; rel=&quot;nofollow&quot; target=&quot;_NEW&quot;&gt;\nhttp://lookpic.com/O/i2/1121/ZUGqm85M.jpeg&lt;/a&gt;\n &lt;a href=&quot;\nhttp://lookpic.com/O/i2/1530/vV1ycKwn.jpeg&quot; rel=&quot;nofollow&quot; target=&quot;_NEW&quot;&gt;\nhttp://lookpic.com/O/i2/1530/vV1ycKwn.jpeg&lt;/a&gt;\n &lt;a href=&quot;\nhttp://lookpic.com/O/i2/1873/euuTloJS.jpeg&quot; rel=&quot;nofollow&quot; target=&quot;_NEW&quot;&gt;\nhttp://lookpic.com/O/i2/1873/euuTloJS.jpeg&lt;/a&gt;\n &lt;a href=&quot;\nhttp://lookpic.com/O/i2/1522/ZxEWMPQI.jpeg&quot; rel=&quot;nofollow&quot; target=&quot;_NEW&quot;&gt;\nhttp://lookpic.com/O/i2/1522/ZxEWMPQI.jpeg&lt;/a&gt;\n &lt;a href=&quot;\nhttp://lookpic.com/O/i2/1539/xwMyNP0.jpeg&quot; rel=&quot;nofollow&quot; target=&quot;_NEW&quot;&gt;\nhttp://lookpic.com/O/i2/1539/xwMyNP0.jpeg&lt;/a&gt;\n &lt;a href=&quot;\nhttp://lookpic.com/O/i2/1608/hU6vYesA.jpeg&quot; rel=&quot;nofollow&quot; target=&quot;_NEW&quot;&gt;\nhttp://lookpic.com/O/i2/1608/hU6vYesA.jpeg&lt;/a&gt;\n &lt;a href=&quot;\nhttp://lookpic.com/O/i2/1240/CMSYeUhj.jpeg&quot; rel=&quot;nofollow&quot; target=&quot;_NEW&quot;&gt;\nhttp://lookpic.com/O/i2/1240/CMSYeUhj.jpeg&lt;/a&gt;\n\n\nGREETZ\n\n\nBlackjesus, Hive-CM8, ViP3R, THC, SANTi, CRYS, AQOS, EVO, playXD, SuperNova, MiLLENiUM, MAJESTiC, FUM, AFG and respect to all pirate groups and encoders past and present. Sharing is caring.\n\n\nALSO IF YOU HAVE ANY REQUESTS DON'T HESITATE TO ASK. I MIGHT HAVE WHAT YOUR LOOKING FOR. YOU NEVER KNOW. IT NEVER HURTS TO ASK. EMAIL ME AT greenbud1969 AT hotmail dot com OR LEAVE REQUESTS IN COMMENTS","torrent":{"xt":"urn:btih:1e80d55febb12f8358488c44ee53cf6bb5609682","amp;dn":"Good+Luck+Chuck+2007+Unrated+DvDrip+XviD+AC3+greenbud1969","amp;tr":["udp%3A%2F%2Ftracker.openbittorrent.com%3A80","udp%3A%2F%2Fopen.demonii.com%3A1337","udp%3A%2F%2Ftracker.coppersurfer.tk%3A6969","udp%3A%2F%2Fexodus.desync.com%3A6969"],"infoHash":"1e80d55febb12f8358488c44ee53cf6bb5609682","infoHashBuffer":{"type":"Buffer","data":[30,128,213,95,235,177,47,131,88,72,140,68,238,83,207,107,181,96,150,130]},"announce":[],"urlList":[]}}